<svg xmlns="http://www.w3.org/2000/svg" width="1200" height="760" viewBox="0 0 1200 760">
  <rect width="1200" height="760" fill="#f8fafc"/>
  <rect x="36" y="36" width="1128" height="688" rx="36" fill="#ffffff" stroke="#d8dee8" stroke-width="3"/>
  <text x="72" y="96" fill="#1e3a5f" font-family="Arial, sans-serif" font-size="34" font-weight="800">Volterra Residencial</text>
  <text x="72" y="136" fill="#64748b" font-family="Arial, sans-serif" font-size="18">Departamentos por etapa - Mayo</text>
  <rect x="96" y="188" width="292" height="428" rx="34" fill="#eef2f7" stroke="#94a3b8" stroke-width="3"/>
  <rect x="454" y="188" width="292" height="428" rx="34" fill="#eef2f7" stroke="#94a3b8" stroke-width="3"/>
  <rect x="812" y="188" width="292" height="428" rx="34" fill="#eef2f7" stroke="#94a3b8" stroke-width="3"/>
  <text x="242" y="246" fill="#1e3a5f" font-family="Arial, sans-serif" font-size="30" font-weight="900" text-anchor="middle">Etapa 1A</text>
  <text x="600" y="246" fill="#1e3a5f" font-family="Arial, sans-serif" font-size="30" font-weight="900" text-anchor="middle">Etapa 1B</text>
  <text x="958" y="246" fill="#1e3a5f" font-family="Arial, sans-serif" font-size="30" font-weight="900" text-anchor="middle">Etapa 2A</text>
  <g fill="#ffffff" stroke="#cbd5e1" stroke-width="2">
    <rect x="134" y="300" width="80" height="70" rx="14"/>
    <rect x="230" y="300" width="80" height="70" rx="14"/>
    <rect x="134" y="390" width="80" height="70" rx="14"/>
    <rect x="230" y="390" width="80" height="70" rx="14"/>
    <rect x="492" y="300" width="80" height="70" rx="14"/>
    <rect x="588" y="300" width="80" height="70" rx="14"/>
    <rect x="492" y="390" width="80" height="70" rx="14"/>
    <rect x="588" y="390" width="80" height="70" rx="14"/>
    <rect x="850" y="300" width="80" height="70" rx="14"/>
    <rect x="946" y="300" width="80" height="70" rx="14"/>
    <rect x="850" y="390" width="80" height="70" rx="14"/>
    <rect x="946" y="390" width="80" height="70" rx="14"/>
  </g>
  <g fill="#64748b" font-family="Arial, sans-serif" font-size="18" font-weight="800" text-anchor="middle">
    <text x="174" y="342">PB</text>
    <text x="270" y="342">PA</text>
    <text x="174" y="432">PB</text>
    <text x="270" y="432">PA</text>
    <text x="532" y="342">PB</text>
    <text x="628" y="342">PA</text>
    <text x="532" y="432">PB</text>
    <text x="628" y="432">PA</text>
    <text x="890" y="342">PB</text>
    <text x="986" y="342">PA</text>
    <text x="890" y="432">PB</text>
    <text x="986" y="432">PA</text>
  </g>
  <rect x="460" y="648" width="280" height="42" rx="21" fill="#1e3a5f"/>
  <text x="600" y="675" fill="#ffffff" font-family="Arial, sans-serif" font-size="17" font-weight="800" text-anchor="middle">Amenidad: Pickleball / Casa Club</text>
</svg>
